HIERARCHY
ROOT Hips
{
  OFFSET -35.4901 99.2528 17.4586
  CHANNELS 6 Xposition Yposition Zposition Zrotation Xrotation Yrotation
  JOINT LeftUpLeg
  {
    OFFSET 8.64259 1.95398 -2.38835
    CHANNELS 3 Zrotation Xrotation Yrotation
    JOINT LeftLeg
    {
      OFFSET 43.7702 0 0
      CHANNELS 3 Zrotation Xrotation Yrotation
      JOINT LeftFoot
      {
        OFFSET 40.6238 0 0
        CHANNELS 3 Zrotation Xrotation Yrotation
        JOINT LeftToeBase
        {
          OFFSET 12.7242 0 0
          CHANNELS 3 Zrotation Xrotation Yrotation
          End Site
          {
            OFFSET 0 0 0
          }
        }
      }
    }
  }
  JOINT RightUpLeg
  {
    OFFSET -8.2249 1.95398 -2.59336
    CHANNELS 3 Zrotation Xrotation Yrotation
    JOINT RightLeg
    {
      OFFSET 43.5653 0 0
      CHANNELS 3 Zrotation Xrotation Yrotation
      JOINT RightFoot
      {
        OFFSET 40.6238 0 0
        CHANNELS 3 Zrotation Xrotation Yrotation
        JOINT RightToeBase
        {
          OFFSET 12.7242 0 0
          CHANNELS 3 Zrotation Xrotation Yrotation
          End Site
          {
            OFFSET 0 0 0
          }
        }
      }
    }
  }
  JOINT Spine
  {
    OFFSET 0.165834 0.87714 6.61349
    CHANNELS 3 Zrotation Xrotation Yrotation
    JOINT Spine1
    {
      OFFSET 7.38963 1.71661e-005 0
      CHANNELS 3 Zrotation Xrotation Yrotation
      JOINT Spine2
      {
        OFFSET 11.9445 1.14441e-005 0
        CHANNELS 3 Zrotation Xrotation Yrotation
        JOINT Spine3
        {
          OFFSET 14.7254 4.19617e-005 0
          CHANNELS 3 Zrotation Xrotation Yrotation
          JOINT Spine4
          {
            OFFSET 10.9679 0 0
            CHANNELS 3 Zrotation Xrotation Yrotation
            JOINT RightShoulder
            {
              OFFSET 2.46616 -1.6653 3.69651
              CHANNELS 3 Zrotation Xrotation Yrotation
              JOINT RightArm
              {
                OFFSET 13.0012 0 0
                CHANNELS 3 Zrotation Xrotation Yrotation
                JOINT RightForeArm
                {
                  OFFSET 28.7848 1.52588e-005 0
                  CHANNELS 3 Zrotation Xrotation Yrotation
                  JOINT RightHand
                  {
                    OFFSET 26.5688 1.52588e-005 0
                    CHANNELS 3 Zrotation Xrotation Yrotation
                    End Site
                    {
                      OFFSET 0 0 0
                    }
                  }
                }
              }
            }
            JOINT LeftShoulder
            {
              OFFSET 2.38034 -1.29275 -3.7523
              CHANNELS 3 Zrotation Xrotation Yrotation
              JOINT LeftArm
              {
                OFFSET 16.3182 6.10351e-005 0
                CHANNELS 3 Zrotation Xrotation Yrotation
                JOINT LeftForeArm
                {
                  OFFSET 27.0901 0 0
                  CHANNELS 3 Zrotation Xrotation Yrotation
                  JOINT LeftHand
                  {
                    OFFSET 24.5451 1.52588e-005 0
                    CHANNELS 3 Zrotation Xrotation Yrotation
                    End Site
                    {
                      OFFSET 0 0 0
                    }
                  }
                }
              }
            }
            JOINT Neck
            {
              OFFSET 5.0226 -0.0266342 0
              CHANNELS 3 Zrotation Xrotation Yrotation
              JOINT Head
              {
                OFFSET 6.69364 2.86102e-005 0
                CHANNELS 3 Zrotation Xrotation Yrotation
                End Site
                {
                  OFFSET 0 0 0
                }
              }
            }
          }
        }
      }
    }
  }
}
MOTION
Frames:	7
Frame Time:	0.0416667
-96.9215 83.1552 -95.304 20.2045 -54.0091 24.4377 -149.93 55.0638 72.4662 -70.7521 -4.22911 -15.4032 98.5438 12.2205 -13.6064 33.4048 7.23991 -13.7811 -172.308 43.5471 61.9454 -62.1048 -3.03278 -8.5918 68.9083 -4.74195 -4.3765 12.9762 0.327761 1.18814 -0.0117675 11.6077 -91.9873 3.6292 -0.818686 -3.88724 -8.04718 -0.988854 -3.84754 -30.5358 0.386459 -3.95358 -10.5231 0.386463 -3.95358 87.3725 -23.1667 -115.371 8.19591 -1.82968 6.74267 3.94337 -7.2329 -24.2299 -30.8471 2.12048 -13.6264 -90.4784 -35.5947 74.2292 11.0102 23.0318 -60.3996 24.0941 -1.11986 -70.1798 7.9269 -1.06747 -15.1781 27.9613 -0.236453 -8.31267 -2.50768 2.92092 11.7737 
-92.8413 81.7337 -90.1284 32.458 -55.386 35.8452 -156.012 45.7766 75.176 -70.2212 0.816914 -12.932 102.766 14.7276 -10.5363 33.9177 7.25701 -14.016 -164.27 40.6153 61.039 -81.2658 -14.0414 -8.60831 71.6145 -6.56413 -7.12167 8.7294 -2.25283 5.92512 -0.407301 11.2154 -92.0384 4.39638 -1.64259 -3.98125 -7.27938 -1.81608 -3.90525 -29.7665 -0.371365 -4.29027 -9.75384 -0.371361 -4.29027 87.8307 -27.109 -112.382 16.853 -3.4102 17.7742 2.23032 -9.12797 -29.5309 -33.5211 2.30388 -13.6358 -90.2068 -36.4343 74.9861 15.705 28.2448 -54.5907 27.8859 -7.15275 -77.7959 8.98327 -1.21154 -15.6107 22.5345 0.954708 -9.29179 -0.636201 4.18117 13.5824 
-88.8735 80.2387 -84.9603 45.1414 -55.9741 47.0784 -160.926 35.5735 77.051 -70.2664 1.26949 -10.6372 106.445 16.0421 -10.5163 36.2107 6.69482 -13.8592 -160.349 41.8135 62.0781 -96.0786 -10.8501 -4.95884 78.5466 -10.1877 -6.42401 10.5763 -4.02243 9.03147 -0.738199 10.8968 -91.8235 5.03152 -2.22637 -3.54078 -6.64207 -2.37996 -3.4395 -29.1432 -1.06031 -4.04539 -9.13056 -1.06031 -4.04538 89.738 -28.9542 -107.692 29.923 -4.10525 30.4028 -3.60308 -14.4541 -36.2812 -40.5183 1.69337 -10.8609 -89.0404 -33.421 76.1871 21.6875 26.6811 -52.8643 33.8387 -13.2112 -84.9987 9.47763 -1.28637 -15.8547 18.5082 1.15434 -13.3863 -0.215148 5.39772 17.053 
-84.6319 79.3107 -79.6193 52.4212 -54.0541 55.0404 -165.061 27.7763 79.3852 -68.2706 1.38223 -8.75015 108.57 16.7589 -10.5386 39.4117 5.58269 -12.9049 -162.915 50.5829 66.6672 -104.597 1.12452 -2.12423 86.2897 -13.8217 -4.81803 12.0954 -1.76443 5.0237 -1.32964 10.4899 -91.6591 5.83592 -3.35168 -3.16817 -5.83419 -3.4878 -3.01763 -28.3565 -2.24543 -4.02817 -8.34385 -2.24542 -4.02816 90.6999 -27.5577 -106.291 43.6582 -6.20753 42.0626 -7.34545 -15.9421 -41.2159 -43.3106 1.15263 -9.24864 -86.9824 -27.6585 78.4333 23.866 19.4141 -49.6659 33.4069 -16.397 -90.421 13.0811 -1.34138 -13.4564 17.4988 3.62173 -16.1259 -2.31121 8.1428 18.8587 
-79.799 79.3337 -73.3863 53.7172 -52.5726 60.2653 -167.541 20.5967 84.2822 -62.6817 2.46543 -7.52652 107.949 16.4748 -10.5718 41.3719 5.72841 -13.9894 -171.995 61.7362 79.3151 -103.751 2.58198 -1.07307 92.9163 -16.6229 -3.5225 11.6744 -1.37606 4.31295 -1.81255 10.06 -91.7665 6.67508 -4.37309 -3.31179 -4.9922 -4.51454 -3.11602 -27.5286 -3.1766 -4.47218 -7.51601 -3.17659 -4.47218 93.2626 -22.8633 -102.397 58.0163 -11.8097 51.7502 -13.0769 -16.4505 -47.0507 -42.0419 1.29252 -10.1322 -85.0054 -19.4003 80.2427 25.0938 13.5 -46.4807 35.2457 -17.1106 -92.1086 17.4749 -1.845 -14.3831 17.5015 6.79595 -18.4159 -4.52473 11.4772 20.6709 
-73.4445 80.4382 -66.5768 53.2459 -52.2306 63.9952 -170.013 10.8308 87.1722 -50.2547 6.93502 -6.32324 100.285 16.0214 -4.57166 45.3079 5.56466 -15.4447 174.265 68.5997 96.7552 -93.7022 -0.146277 0.121845 96.526 -16.7707 0.209283 12.8011 -0.770634 3.13935 -2.61969 9.72382 -92.3651 7.29464 -6.25217 -4.36895 -4.36777 -6.4382 -4.08918 -26.9183 -4.65254 -6.04451 -6.90571 -4.65254 -6.04452 94.3201 -12.3759 -104.657 73.1023 -15.9492 62.8897 -28.2803 -16.6162 -55.3337 -43.8676 0.953328 -9.94557 -83.0674 -14.1846 83.5232 25.7069 12.2176 -42.4793 34.0962 -17.9439 -93.5483 15.6574 -1.8822 -15.6407 18.6028 12.1863 -14.3662 -7.86071 14.974 21.5679 
-66.0421 82.1905 -59.6396 51.8758 -53.9926 65.8279 -174.112 -1.77065 88.0868 -31.1856 8.26438 -3.41318 85.0729 11.5102 1.30253 49.474 5.70055 -18.0284 162.452 70.4672 112.248 -78.996 -7.6584 2.21928 93.6443 -15.7889 -1.01953 17.6975 -1.58344 4.56823 -2.5959 9.55121 -92.5191 7.62148 -6.27666 -4.65246 -4.04163 -6.47512 -4.37141 -26.5831 -4.59107 -6.32162 -6.5704 -4.59108 -6.32161 94.1053 -14.2062 -104.027 76.1485 -18.2776 69.6901 -40.1162 -14.5437 -60.0997 -44.3094 2.20828 -14.0767 -83.0448 -8.52914 81.7492 28.3902 14.2695 -41.246 35.8154 -19.2188 -93.1689 16.0655 -2.03808 -16.3271 21.8855 13.5051 -16.4428 -11.6105 16.3726 24.4844 
